<svg width="117" height="43" viewBox="0 0 117 43" fill="none" xmlns="http://www.w3.org/2000/svg">
<g id="App Store Black">
<path id="Body" d="M0.0243835 8.3736C0.0243835 3.75904 3.76522 0.0181961 8.37978 0.0181961H108.645C113.259 0.0181961 117 3.75904 117 8.3736V34.4842C117 39.0988 113.259 42.8396 108.645 42.8396H8.37979C3.76523 42.8396 0.0243835 39.0988 0.0243835 34.4842V8.3736Z" fill="#090909"/>
<g id="Logo">
<g id="Apple logo">
<path d="M26.837 22.0781C26.86 20.2689 27.8222 18.557 29.3486 17.6094C28.3857 16.2206 26.7728 15.3402 25.0948 15.2871C23.305 15.0974 21.5699 16.3686 20.6579 16.3686C19.7282 16.3686 18.324 15.306 16.8119 15.3374C14.841 15.4017 13.0035 16.5333 12.0446 18.2733C9.98335 21.8771 11.5209 27.1734 13.4954 30.0864C14.4833 31.5128 15.6379 33.1062 17.1486 33.0497C18.627 32.9878 19.1791 32.0978 20.9636 32.0978C22.7315 32.0978 23.2495 33.0497 24.7909 33.0138C26.3773 32.9878 27.3767 31.581 28.33 30.1411C29.0398 29.1247 29.586 28.0014 29.9483 26.8127C28.0841 26.0165 26.8391 24.122 26.837 22.0781Z" fill="white"/>
<path d="M23.9255 13.3714C24.7904 12.3229 25.2166 10.9752 25.1134 9.61457C23.792 9.75472 22.5713 10.3925 21.6947 11.4007C20.8375 12.3859 20.3914 13.7098 20.4757 15.0185C21.7976 15.0322 23.0972 14.4118 23.9255 13.3714Z" fill="white"/>
</g>
</g>
<g id="Texto">
<g id="App Store">
<path d="M79.5653 20.2094V22.4017H78.2045V23.8394H79.5653V28.7246C79.5653 30.3927 80.3126 31.0599 82.1926 31.0599C82.523 31.0599 82.8376 31.0202 83.1129 30.9725V29.5507C82.877 29.5745 82.7275 29.5904 82.4679 29.5904C81.6262 29.5904 81.2565 29.1932 81.2565 28.2877V23.8394H83.1129V22.4017H81.2565V20.2094H79.5653Z" fill="white"/>
<path d="M87.9022 31.179C90.4036 31.179 91.9375 29.4871 91.9375 26.6831C91.9375 23.895 90.3958 22.1952 87.9022 22.1952C85.4007 22.1952 83.859 23.895 83.859 26.6831C83.859 29.4871 85.3929 31.179 87.9022 31.179ZM87.9022 29.6619C86.4312 29.6619 85.6053 28.5736 85.6053 26.6831C85.6053 24.8085 86.4312 23.7123 87.9022 23.7123C89.3653 23.7123 90.1991 24.8085 90.1991 26.6831C90.1991 28.5657 89.3653 29.6619 87.9022 29.6619Z" fill="white"/>
<path d="M93.2499 31.0122H94.9411V25.9047C94.9411 24.6894 95.8458 23.8712 97.1279 23.8712C97.4268 23.8712 97.9303 23.9268 98.0719 23.9745V22.2905C97.891 22.2428 97.5684 22.219 97.3167 22.219C96.1997 22.219 95.2479 22.8386 95.0041 23.6885H94.8782V22.362H93.2499V31.0122Z" fill="white"/>
<path d="M102.271 23.6488C103.522 23.6488 104.34 24.5305 104.379 25.8888H100.053C100.147 24.5384 101.02 23.6488 102.271 23.6488ZM104.371 28.6769C104.057 29.3521 103.357 29.7254 102.334 29.7254C100.981 29.7254 100.108 28.7643 100.053 27.2471V27.1518H106.102V26.556C106.102 23.8394 104.662 22.1952 102.279 22.1952C99.8641 22.1952 98.3302 23.9506 98.3302 26.7149C98.3302 29.4792 99.8326 31.179 102.287 31.179C104.246 31.179 105.614 30.2258 106 28.6769H104.371Z" fill="white"/>
<path d="M68.4745 27.8178C68.6049 29.9419 70.3579 31.3004 72.9668 31.3004C75.7552 31.3004 77.4999 29.8761 77.4999 27.6038C77.4999 25.8172 76.5053 24.8293 74.092 24.2612L72.7956 23.9401C71.2628 23.5778 70.6432 23.0921 70.6432 22.2441C70.6432 21.1738 71.6053 20.474 73.0484 20.474C74.4181 20.474 75.3638 21.1573 75.535 22.2523H77.3124C77.2064 20.2517 75.4617 18.8439 73.0728 18.8439C70.5046 18.8439 68.7925 20.2517 68.7925 22.3676C68.7925 24.113 69.7627 25.1503 71.8906 25.6526L73.4071 26.023C74.9643 26.3935 75.6492 26.9369 75.6492 27.8425C75.6492 28.8963 74.573 29.662 73.1054 29.662C71.5319 29.662 70.4394 28.9457 70.2845 27.8178H68.4745Z" fill="white"/>
<path d="M50.9551 22.219C49.7909 22.219 48.7841 22.8068 48.2649 23.7918H48.139V22.362H46.5107V33.8877H48.202V29.7016H48.3357C48.7841 30.6151 49.7516 31.1552 50.9709 31.1552C53.1341 31.1552 54.5106 29.4315 54.5106 26.6831C54.5106 23.9348 53.1341 22.219 50.9551 22.219ZM50.4753 29.6222C49.0594 29.6222 48.1705 28.4942 48.1705 26.6911C48.1705 24.88 49.0594 23.7521 50.4832 23.7521C51.9148 23.7521 52.7722 24.8562 52.7722 26.6831C52.7722 28.518 51.9148 29.6222 50.4753 29.6222Z" fill="white"/>
<path d="M60.4285 22.219C59.2643 22.219 58.2574 22.8068 57.7383 23.7918H57.6124V22.362H55.9841V33.8877H57.6754V29.7016H57.8091C58.2574 30.6151 59.225 31.1552 60.4442 31.1552C62.6074 31.1552 63.984 29.4315 63.984 26.6831C63.984 23.9348 62.6074 22.219 60.4285 22.219ZM59.9487 29.6222C58.5328 29.6222 57.6439 28.4942 57.6439 26.6911C57.6439 24.88 58.5328 23.7521 59.9565 23.7521C61.3882 23.7521 62.2456 24.8562 62.2456 26.6831C62.2456 28.518 61.3882 29.6222 59.9487 29.6222Z" fill="white"/>
<path d="M43.4764 31.0122H45.4168L41.1691 19.132H39.2042L34.9565 31.0122H36.8317L37.916 27.859H42.4002L43.4764 31.0122ZM40.0929 21.2891H40.2315L41.9355 26.3112H38.3807L40.0929 21.2891Z" fill="white"/>
</g>
<g id="Download on the">
<path d="M34.9096 10.7526V15.4485H36.5886C37.9744 15.4485 38.7768 14.5862 38.7768 13.0859C38.7768 11.6085 37.9679 10.7526 36.5886 10.7526H34.9096ZM35.6315 11.4165H36.508C37.4716 11.4165 38.042 12.0348 38.042 13.0957C38.042 14.1729 37.4813 14.7847 36.508 14.7847H35.6315V11.4165Z" fill="white"/>
<path d="M41.2344 15.5169C42.2592 15.5169 42.8877 14.8237 42.8877 13.675C42.8877 12.5327 42.256 11.8363 41.2344 11.8363C40.2096 11.8363 39.578 12.5327 39.578 13.675C39.578 14.8237 40.2064 15.5169 41.2344 15.5169ZM41.2344 14.8953C40.6318 14.8953 40.2934 14.4495 40.2934 13.675C40.2934 12.9069 40.6318 12.4579 41.2344 12.4579C41.8339 12.4579 42.1755 12.9069 42.1755 13.675C42.1755 14.4462 41.8339 14.8953 41.2344 14.8953Z" fill="white"/>
<path d="M48.2393 11.9046H47.5464L46.9212 14.6089H46.8664L46.1445 11.9046H45.4806L44.7588 14.6089H44.7072L44.0788 11.9046H43.3762L44.343 15.4485H45.0553L45.7771 12.8386H45.8319L46.557 15.4485H47.2757L48.2393 11.9046Z" fill="white"/>
<path d="M49.0372 15.4485H49.7301V13.3756C49.7301 12.8223 50.0556 12.4774 50.568 12.4774C51.0804 12.4774 51.3253 12.7605 51.3253 13.33V15.4485H52.0182V13.1543C52.0182 12.3114 51.5864 11.8363 50.8032 11.8363C50.2747 11.8363 49.9267 12.0738 49.7559 12.4676H49.7043V11.9046H49.0372V15.4485Z" fill="white"/>
<path d="M53.1094 15.4485H53.8023V10.5216H53.1094V15.4485Z" fill="white"/>
<path d="M56.4082 15.5169C57.433 15.5169 58.0614 14.8237 58.0614 13.675C58.0614 12.5327 57.4297 11.8363 56.4082 11.8363C55.3833 11.8363 54.7517 12.5327 54.7517 13.675C54.7517 14.8237 55.3801 15.5169 56.4082 15.5169ZM56.4082 14.8953C55.8055 14.8953 55.4671 14.4495 55.4671 13.675C55.4671 12.9069 55.8055 12.4579 56.4082 12.4579C57.0076 12.4579 57.3492 12.9069 57.3492 13.675C57.3492 14.4462 57.0076 14.8953 56.4082 14.8953Z" fill="white"/>
<path d="M60.1258 14.9181C59.7488 14.9181 59.4749 14.7326 59.4749 14.4137C59.4749 14.1013 59.694 13.9353 60.1774 13.9028L61.0346 13.8474V14.1436C61.0346 14.5829 60.6479 14.9181 60.1258 14.9181ZM59.9486 15.5071C60.4094 15.5071 60.7929 15.3054 61.0024 14.9506H61.0572V15.4485H61.7243V13.0274C61.7243 12.2789 61.228 11.8363 60.3482 11.8363C59.5522 11.8363 58.985 12.2268 58.9141 12.8354H59.5844C59.6618 12.5848 59.9293 12.4416 60.316 12.4416C60.7897 12.4416 61.0346 12.6531 61.0346 13.0274V13.3333L60.084 13.3886C59.2493 13.4406 58.7788 13.8084 58.7788 14.4462C58.7788 15.0938 59.2718 15.5071 59.9486 15.5071Z" fill="white"/>
<path d="M64.0756 15.5071C64.559 15.5071 64.9683 15.2761 65.1777 14.8888H65.2325V15.4485H65.8964V10.5216H65.2035V12.4676H65.152C64.9618 12.0771 64.5558 11.846 64.0756 11.846C63.1893 11.846 62.6189 12.5555 62.6189 13.675C62.6189 14.7977 63.1829 15.5071 64.0756 15.5071ZM64.2722 12.4741C64.8522 12.4741 65.2164 12.9395 65.2164 13.6782C65.2164 14.4202 64.8555 14.879 64.2722 14.879C63.6856 14.879 63.3344 14.4267 63.3344 13.675C63.3344 12.9297 63.6889 12.4741 64.2722 12.4741Z" fill="white"/>
<path d="M70.3895 15.5169C71.4143 15.5169 72.0427 14.8237 72.0427 13.675C72.0427 12.5327 71.4111 11.8363 70.3895 11.8363C69.3647 11.8363 68.733 12.5327 68.733 13.675C68.733 14.8237 69.3614 15.5169 70.3895 15.5169ZM70.3895 14.8953C69.7868 14.8953 69.4485 14.4495 69.4485 13.675C69.4485 12.9069 69.7868 12.4579 70.3895 12.4579C70.9889 12.4579 71.3305 12.9069 71.3305 13.675C71.3305 14.4462 70.9889 14.8953 70.3895 14.8953Z" fill="white"/>
<path d="M72.9599 15.4485H73.6528V13.3756C73.6528 12.8223 73.9783 12.4774 74.4907 12.4774C75.0031 12.4774 75.248 12.7605 75.248 13.33V15.4485H75.9409V13.1543C75.9409 12.3114 75.509 11.8363 74.7259 11.8363C74.1974 11.8363 73.8494 12.0738 73.6786 12.4676H73.627V11.9046H72.9599V15.4485Z" fill="white"/>
<path d="M79.132 11.0227V11.9209H78.5745V12.5099H79.132V14.5113C79.132 15.1947 79.4381 15.4681 80.2084 15.4681C80.3437 15.4681 80.4726 15.4518 80.5854 15.4323V14.8498C80.4887 14.8595 80.4275 14.866 80.3212 14.866C79.9763 14.866 79.8249 14.7033 79.8249 14.3323V12.5099H80.5854V11.9209H79.8249V11.0227H79.132Z" fill="white"/>
<path d="M81.5155 15.4485H82.2084V13.3788C82.2084 12.8419 82.5242 12.4806 83.0914 12.4806C83.5812 12.4806 83.8423 12.767 83.8423 13.3333V15.4485H84.5352V13.1608C84.5352 12.3179 84.0743 11.8395 83.3266 11.8395C82.7981 11.8395 82.4275 12.0771 82.2567 12.4741H82.2019V10.5216H81.5155V15.4485Z" fill="white"/>
<path d="M87.0347 12.4318C87.5471 12.4318 87.8822 12.793 87.8984 13.3495H86.1259C86.1646 12.7963 86.5223 12.4318 87.0347 12.4318ZM87.8951 14.4918C87.7662 14.7684 87.4794 14.9214 87.0605 14.9214C86.5062 14.9214 86.1484 14.5276 86.1259 13.906V13.867H88.6041V13.6229C88.6041 12.5099 88.0144 11.8363 87.0379 11.8363C86.0485 11.8363 85.4201 12.5555 85.4201 13.688C85.4201 14.8205 86.0356 15.5169 87.0411 15.5169C87.8436 15.5169 88.4043 15.1264 88.5622 14.4918H87.8951Z" fill="white"/>
</g>
</g>
</g>
</svg>
