<svg width="117" height="45" viewBox="0 0 117 45" fill="none" xmlns="http://www.w3.org/2000/svg">
<g id="App Gallery Black">
<path id="Body" d="M0.0243835 8.55043C0.0243835 3.93586 3.76522 0.195023 8.37978 0.195023H108.645C113.259 0.195023 117 3.93586 117 8.55042V35.7055C117 40.32 113.259 44.0609 108.645 44.0609H8.37979C3.76523 44.0609 0.0243835 40.32 0.0243835 35.7055V8.55043Z" fill="#090909"/>
<g id="Texto">
<g id="App Gallery">
<path d="M40.8351 26.1617H43.7208L42.6877 23.2579C42.5455 22.8568 42.4057 22.4137 42.2679 21.9284C42.1435 22.3577 42.0079 22.7961 41.8613 23.2439L40.8351 26.1617ZM44.2139 27.5402H40.3486L39.4025 30.2552H37.7031L41.4882 20.1162H43.0943L46.9661 30.2552H45.1802L44.2139 27.5402Z" fill="white"/>
<path d="M51.9792 28.4114C52.3146 27.938 52.4824 27.2463 52.4824 26.3367C52.4824 25.4925 52.3435 24.8801 52.0659 24.4998C51.7881 24.1197 51.4183 23.9296 50.9562 23.9296C50.6364 23.9296 50.3409 24.0091 50.07 24.1675C49.799 24.3262 49.5412 24.5384 49.2969 24.8043V28.8488C49.4613 28.9326 49.6524 28.9992 49.8701 29.048C50.0878 29.0972 50.3033 29.1217 50.5164 29.1217C51.1563 29.1217 51.6437 28.8848 51.9792 28.4114ZM47.651 24.5524C47.651 23.9927 47.6331 23.3768 47.5977 22.7052H49.1437C49.2013 23.0177 49.2414 23.3374 49.2636 23.6637C49.9033 22.9315 50.6364 22.5651 51.4627 22.5651C51.9426 22.5651 52.3868 22.6923 52.7956 22.9464C53.2042 23.2007 53.5342 23.6019 53.7851 24.1499C54.0363 24.6982 54.1617 25.3946 54.1617 26.2388C54.1617 27.1204 54.0184 27.8739 53.7318 28.4988C53.4452 29.1241 53.0444 29.5973 52.529 29.9194C52.0137 30.2411 51.4183 30.4022 50.7431 30.4022C50.2542 30.4022 49.7721 30.3158 49.2969 30.1433V33.2639L47.651 33.4109V24.5524Z" fill="white"/>
<path d="M59.4888 28.4114C59.8243 27.938 59.9921 27.2463 59.9921 26.3367C59.9921 25.4925 59.8532 24.8801 59.5756 24.4998C59.2978 24.1197 58.928 23.9296 58.4659 23.9296C58.1461 23.9296 57.8507 24.0091 57.5797 24.1675C57.3085 24.3262 57.0509 24.5384 56.8066 24.8043V28.8488C56.971 28.9326 57.1619 28.9992 57.3798 29.048C57.5973 29.0972 57.8128 29.1217 58.0261 29.1217C58.6658 29.1217 59.1534 28.8848 59.4888 28.4114ZM55.1604 24.5524C55.1604 23.9927 55.1426 23.3768 55.1072 22.7052H56.6534C56.711 23.0177 56.7511 23.3374 56.7733 23.6637C57.413 22.9315 58.1461 22.5651 58.9724 22.5651C59.4523 22.5651 59.8963 22.6923 60.3053 22.9464C60.7139 23.2007 61.0438 23.6019 61.295 24.1499C61.5457 24.6982 61.6714 25.3946 61.6714 26.2388C61.6714 27.1204 61.5279 27.8739 61.2415 28.4988C60.9549 29.1241 60.5538 29.5973 60.0387 29.9194C59.5232 30.2411 58.928 30.4022 58.2526 30.4022C57.7639 30.4022 57.2818 30.3158 56.8066 30.1433V33.2639L55.1604 33.4109V24.5524Z" fill="white"/>
<path d="M64.6951 29.7758C63.9841 29.3632 63.4378 28.7717 63.0558 28.0021C62.6735 27.2324 62.4826 26.3227 62.4826 25.2731C62.4826 24.135 62.7025 23.1681 63.1424 22.3726C63.5822 21.5775 64.1809 20.9803 64.9382 20.5814C65.6958 20.1826 66.5453 19.9832 67.4875 19.9832C68.0426 19.9832 68.5725 20.0474 69.0768 20.1756C69.5809 20.304 70.0507 20.4799 70.4863 20.704L70.0663 22.0333C69.191 21.5949 68.3559 21.3756 67.5608 21.3756C66.8898 21.3756 66.3023 21.5261 65.7982 21.827C65.2939 22.128 64.9016 22.5699 64.6218 23.153C64.3418 23.7362 64.202 24.4405 64.202 25.2661C64.202 25.9894 64.3097 26.6306 64.525 27.1904C64.7407 27.7501 65.0806 28.1935 65.5448 28.5199C66.0091 28.8464 66.5944 29.0096 67.3008 29.0096C67.6206 29.0096 67.9405 28.9817 68.2604 28.9257C68.5802 28.8698 68.8802 28.7882 69.16 28.6807V26.6306H66.9277V25.2871H70.7595V29.5555C70.2085 29.826 69.6298 30.0338 69.0235 30.1783C68.4169 30.3227 67.8139 30.395 67.2141 30.395C66.2455 30.395 65.4057 30.1889 64.6951 29.7758Z" fill="white"/>
<path d="M75.6226 28.8556C75.9644 28.6833 76.2444 28.4685 76.4622 28.212V26.8125C76.0133 26.7613 75.6468 26.7356 75.3626 26.7356C74.6828 26.7356 74.2129 26.8509 73.9533 27.082C73.6931 27.3126 73.5633 27.6242 73.5633 28.016C73.5633 28.3895 73.6577 28.6657 73.8466 28.8452C74.0354 29.0248 74.2919 29.1146 74.6161 29.1146C74.9448 29.1146 75.2803 29.0284 75.6226 28.8556ZM76.6088 30.2552C76.5509 29.9612 76.513 29.6278 76.4954 29.2546C76.2422 29.572 75.9125 29.8412 75.5057 30.0629C75.0996 30.2843 74.6406 30.395 74.1297 30.395C73.7165 30.395 73.3401 30.31 73 30.1396C72.6605 29.9695 72.3904 29.7129 72.1905 29.3699C71.9907 29.0272 71.8905 28.6086 71.8905 28.1139C71.8905 27.3817 72.1414 26.7973 72.6436 26.3611C73.1457 25.925 73.9831 25.707 75.1559 25.707C75.5957 25.707 76.0311 25.7397 76.4622 25.8049V25.658C76.4622 24.991 76.3265 24.521 76.0556 24.2479C75.7846 23.9752 75.3958 23.8387 74.8895 23.8387C74.5384 23.8387 74.1631 23.8924 73.7631 23.9996C73.3634 24.1071 73.0123 24.2353 72.7103 24.3845L72.4503 23.125C72.7435 22.985 73.1301 22.8567 73.6099 22.7401C74.0898 22.6236 74.5961 22.5651 75.1293 22.5651C75.7513 22.5651 76.2799 22.6643 76.7153 22.8624C77.1507 23.0608 77.4906 23.4015 77.7349 23.8841C77.9793 24.3671 78.1015 25.0167 78.1015 25.8329V28.8346C78.1015 29.1473 78.1191 29.621 78.1547 30.2552H76.6088Z" fill="white"/>
<path d="M79.3643 28.4428V19.5214L81.0036 19.3814V28.135C81.0036 28.4569 81.0558 28.6842 81.1601 28.8173C81.2645 28.95 81.43 29.0168 81.6567 29.0168C81.7589 29.0168 81.9033 28.9912 82.0897 28.9398L82.283 30.1783C82.1274 30.2436 81.9376 30.2961 81.7135 30.3356C81.489 30.3752 81.2768 30.395 81.0769 30.395C79.9349 30.395 79.3643 29.7444 79.3643 28.4428Z" fill="white"/>
<path d="M83.4627 28.4428V19.5214L85.102 19.3814V28.135C85.102 28.4569 85.1542 28.6842 85.2585 28.8173C85.3631 28.95 85.5286 29.0168 85.7551 29.0168C85.8573 29.0168 86.0017 28.9912 86.1883 28.9398L86.3816 30.1783C86.226 30.2436 86.036 30.2961 85.8119 30.3356C85.5874 30.3752 85.3752 30.395 85.1753 30.395C84.0335 30.395 83.4627 29.7444 83.4627 28.4428Z" fill="white"/>
<path d="M91.5185 25.602C91.4855 25.0003 91.3424 24.549 91.0849 24.2479C90.8273 23.9472 90.4817 23.7966 90.0525 23.7966C89.6342 23.7966 89.2864 23.9484 89.0091 24.2515C88.7317 24.5549 88.549 25.005 88.4654 25.602H91.5185ZM93.1233 26.7006H88.4191C88.494 28.282 89.2116 29.0727 90.572 29.0727C90.9088 29.0727 91.2544 29.0295 91.6088 28.9433C91.961 28.8568 92.3 28.7415 92.6236 28.5968L92.9846 29.7793C92.1789 30.19 91.2764 30.395 90.2726 30.395C89.5066 30.395 88.8638 30.2436 88.3399 29.9403C87.8138 29.6372 87.4197 29.201 87.1556 28.6317C86.8919 28.0629 86.7596 27.3771 86.7596 26.5746C86.7596 25.7397 86.8996 25.0212 87.1798 24.4195C87.4594 23.8177 87.849 23.3583 88.3487 23.041C88.8484 22.7238 89.4251 22.5651 90.0789 22.5651C90.7591 22.5651 91.3248 22.732 91.7805 23.0656C92.2362 23.3989 92.573 23.8434 92.7931 24.3984C93.0132 24.9538 93.1233 25.567 93.1233 26.2388V26.7006Z" fill="white"/>
<path d="M94.3692 24.6014C94.3692 24.1863 94.3494 23.5543 94.3142 22.7052H95.8551C95.8815 22.9151 95.9057 23.1658 95.9321 23.4574C95.9563 23.7489 95.9718 23.9856 95.9806 24.1675C96.1721 23.8364 96.3592 23.5577 96.5441 23.3315C96.729 23.105 96.9447 22.921 97.1913 22.7785C97.4378 22.6363 97.7174 22.5651 98.0344 22.5651C98.2875 22.5651 98.5033 22.5932 98.686 22.6492L98.479 24.1466C98.3205 24.0953 98.1422 24.0696 97.9463 24.0696C97.5611 24.0696 97.2221 24.1734 96.9337 24.3811C96.6453 24.5885 96.3372 24.9302 96.007 25.406V30.2552H94.3692V24.6014Z" fill="white"/>
<path d="M99.6105 33.3444C99.3706 33.3002 99.1724 33.25 99.0184 33.1941L99.3177 31.9346C99.4278 31.967 99.5687 31.9986 99.7382 32.029C99.9055 32.0595 100.066 32.0745 100.218 32.0745C100.947 32.0745 101.493 31.5821 101.856 30.598L101.964 30.3181L99.3111 22.7052H101.077L102.411 26.9594C102.626 27.6873 102.767 28.2448 102.829 28.6317C102.954 28.086 103.1 27.5402 103.269 26.9944L104.623 22.7052H106.28L103.637 30.3532C103.388 31.0762 103.117 31.6591 102.829 32.1025C102.54 32.5455 102.199 32.8744 101.807 33.0891C101.413 33.3035 100.94 33.4109 100.383 33.4109C100.108 33.4109 99.8505 33.389 99.6105 33.3444Z" fill="white"/>
</g>
<g id="Explore it on">
<path d="M37.7032 10.9123H40.4242L40.3476 11.6023H38.5006V12.9386H40.2423V13.5852H38.5006V15.0655H40.4464L40.3794 15.7622H37.7032V10.9123Z" fill="white"/>
<path d="M42.2997 13.287L40.8643 10.9123H41.7701L42.7431 12.6574L43.7671 10.9123H44.6474L43.2247 13.2568L44.7655 15.7622H43.8468L42.7464 13.8531L41.6266 15.7622H40.7463L42.2997 13.287Z" fill="white"/>
<path d="M47.3525 13.0776C47.5225 12.9159 47.6077 12.6874 47.6077 12.3927C47.6077 12.0934 47.5209 11.8782 47.3478 11.7464C47.1744 11.6145 46.9197 11.5487 46.5838 11.5487H46.15V13.2703C46.3499 13.3037 46.503 13.3204 46.6093 13.3204C46.9346 13.3204 47.1824 13.2396 47.3525 13.0776ZM45.3524 10.9123H46.5965C47.1812 10.9123 47.6289 11.0375 47.9394 11.2874C48.2499 11.5376 48.4051 11.8992 48.4051 12.3725C48.4051 12.6941 48.3355 12.9751 48.1962 13.215C48.0568 13.455 47.8628 13.6394 47.614 13.7676C47.3653 13.8962 47.0791 13.9603 46.7559 13.9603C46.5795 13.9603 46.3774 13.938 46.15 13.8932V15.7622H45.3524V10.9123Z" fill="white"/>
<path d="M49.1931 10.9123H49.9905V15.0454H51.9012L51.8342 15.7622H49.1931V10.9123Z" fill="white"/>
<path d="M55.1805 14.9298C55.4038 14.7725 55.5706 14.556 55.6813 14.2801C55.7919 14.0044 55.8472 13.6889 55.8472 13.3339C55.8472 12.9856 55.7982 12.6754 55.7004 12.4027C55.6025 12.1303 55.4463 11.9134 55.2315 11.7513C55.0167 11.5895 54.7403 11.5084 54.402 11.5084C54.0789 11.5084 53.8045 11.5905 53.5791 11.7547C53.3537 11.9187 53.1847 12.1389 53.072 12.4145C52.9593 12.6904 52.903 12.9946 52.903 13.3273C52.903 13.6777 52.956 13.9916 53.0624 14.2683C53.1686 14.5453 53.3313 14.7641 53.5505 14.9249C53.7694 15.0857 54.0405 15.1661 54.3639 15.1661C54.685 15.1661 54.9571 15.0872 55.1805 14.9298ZM53.1134 15.5245C52.7754 15.3212 52.5169 15.0359 52.3383 14.6685C52.1596 14.3013 52.0704 13.8743 52.0704 13.3875C52.0704 12.8763 52.1654 12.4291 52.3558 12.046C52.5461 11.6632 52.8205 11.3674 53.1788 11.1584C53.5371 10.9498 53.9597 10.8452 54.4468 10.8452C54.9124 10.8452 55.3134 10.9464 55.6494 11.1483C55.9852 11.3507 56.2417 11.6347 56.4181 12.0008C56.5946 12.3672 56.6828 12.7914 56.6828 13.2737C56.6828 13.7939 56.5867 14.2462 56.3942 14.6302C56.2017 15.0141 55.9275 15.3101 55.5712 15.5176C55.215 15.7253 54.7967 15.8292 54.3161 15.8292C53.8525 15.8292 53.4515 15.7277 53.1134 15.5245Z" fill="white"/>
<path d="M58.8234 13.2066C59.0167 13.2066 59.188 13.1672 59.3368 13.0876C59.4857 13.0085 59.6016 12.8968 59.6845 12.7528C59.7676 12.6087 59.809 12.4418 59.809 12.2521C59.809 12.0088 59.7356 11.8306 59.589 11.7179C59.4422 11.6051 59.2284 11.5487 58.9477 11.5487H58.3704V13.2066H58.8234ZM57.573 10.9123H59.0179C59.5453 10.9123 59.9446 11.0229 60.2157 11.2439C60.4868 11.4649 60.6224 11.7811 60.6224 12.1918C60.6224 12.4486 60.5734 12.6748 60.4756 12.87C60.3778 13.0655 60.2566 13.2246 60.112 13.3472C59.9673 13.47 59.8186 13.5616 59.6655 13.622L61.085 15.7622H60.16L58.9573 13.8396H58.3704V15.7622H57.573V10.9123Z" fill="white"/>
<path d="M61.7166 10.9123H64.4376L64.361 11.6023H62.514V12.9386H64.2557V13.5852H62.514V15.0655H64.4598L64.3929 15.7622H61.7166V10.9123Z" fill="white"/>
<path d="M67.3978 10.9123H68.1952V15.7622H67.3978V10.9123Z" fill="white"/>
<path d="M70.3037 11.6124H68.8713L68.9416 10.9123H72.5367L72.4632 11.6124H71.1011V15.7622H70.3037V11.6124Z" fill="white"/>
<path d="M78.0648 14.9298C78.2879 14.7725 78.4549 14.556 78.5655 14.2801C78.676 14.0044 78.7313 13.6889 78.7313 13.3339C78.7313 12.9856 78.6823 12.6754 78.5847 12.4027C78.4867 12.1303 78.3304 11.9134 78.1158 11.7513C77.9008 11.5895 77.6244 11.5084 77.2863 11.5084C76.9629 11.5084 76.6888 11.5905 76.4634 11.7547C76.2378 11.9187 76.0688 12.1389 75.9563 12.4145C75.8434 12.6904 75.787 12.9946 75.787 13.3273C75.787 13.6777 75.8401 13.9916 75.9467 14.2683C76.0528 14.5453 76.2155 14.7641 76.4346 14.9249C76.6536 15.0857 76.9248 15.1661 77.2481 15.1661C77.5691 15.1661 77.8414 15.0872 78.0648 14.9298ZM75.9977 15.5245C75.6594 15.3212 75.4012 15.0359 75.2225 14.6685C75.0439 14.3013 74.9545 13.8743 74.9545 13.3875C74.9545 12.8763 75.0496 12.4291 75.2401 12.046C75.4302 11.6632 75.7046 11.3674 76.063 11.1584C76.4213 10.9498 76.8439 10.8452 77.331 10.8452C77.7967 10.8452 78.1974 10.9464 78.5337 11.1483C78.8695 11.3507 79.1257 11.6347 79.3023 12.0008C79.4787 12.3672 79.5671 12.7914 79.5671 13.2737C79.5671 13.7939 79.4708 14.2462 79.2784 14.6302C79.0859 15.0141 78.8115 15.3101 78.4555 15.5176C78.0992 15.7253 77.6807 15.8292 77.2002 15.8292C76.7365 15.8292 76.3358 15.7277 75.9977 15.5245Z" fill="white"/>
<path d="M80.457 10.9123H81.3726L83.6569 14.6702C83.6365 14.3131 83.6283 13.9836 83.6283 13.6823V10.9123H84.3673V15.7622H83.4813L81.1621 11.9438C81.1854 12.3772 81.1971 12.7612 81.1971 13.096V15.7622H80.457V10.9123Z" fill="white"/>
</g>
</g>
<g id="Logo">
<path id="Vector 3" fill-rule="evenodd" clip-rule="evenodd" d="M26.6501 10.9546H17.0673C12.5532 10.9546 10.9021 12.6384 10.9021 17.2419V27.0144C10.9021 31.6177 12.5532 33.3014 17.0673 33.3014H26.6471C31.1612 33.3014 32.8153 31.6177 32.8153 27.0144V17.2419C32.8153 12.6384 31.1642 10.9546 26.6501 10.9546Z" fill="#C91C2E"/>
<path id="Vector 2" d="M20.6513 23.6578H21.5051L21.0769 22.6121L20.6513 23.6578ZM20.4411 24.1849L20.1879 24.7933H19.6113L20.8375 21.8725H21.3357L22.557 24.7933H21.9649L21.7148 24.1849H20.4411ZM29.719 24.7913H30.2763V21.8725H29.719V24.7913ZM27.5012 23.5371H28.5282V23.0052H27.5012V22.4069H28.9921V21.8743H26.9441V24.7931H29.0458V24.2607H27.5012V23.5371ZM25.287 23.882L24.6551 21.8724H24.1944L23.5624 23.882L22.9475 21.8738H22.3465L23.3166 24.7947H23.7841L24.4169 22.8761L25.0495 24.7947H25.5212L26.4888 21.8738H25.9032L25.287 23.882ZM18.7607 23.5452C18.7607 24.0204 18.5359 24.2742 18.1279 24.2742C17.7176 24.2742 17.4917 24.0132 17.4917 23.525V21.8741H16.927V23.5452C16.927 24.3673 17.362 24.8387 18.1203 24.8387C18.886 24.8387 19.3252 24.3583 19.3252 23.521V21.8724H18.7607V23.5452ZM15.5796 21.8725H16.144V24.7949H15.5796V23.6082H14.3043V24.7949H13.7396V21.8725H14.3043V23.0514H15.5796V21.8725Z" fill="white"/>
<path id="Vector 1" d="M22.008 18.1515C20.0542 18.1515 18.4645 16.4823 18.4645 14.4308H18.9651C18.9651 16.1925 20.33 17.6259 22.008 17.6259C23.6859 17.6259 25.0509 16.1925 25.0509 14.4308H25.5515C25.5515 16.4823 23.9618 18.1515 22.008 18.1515Z" fill="white"/>
</g>
</g>
</svg>
