<svg width="117" height="45" viewBox="0 0 117 45" fill="none" xmlns="http://www.w3.org/2000/svg">
<g id="Google Play Black">
<path id="Body" d="M0.0243835 9.15235C0.0243835 4.53779 3.76522 0.796944 8.37978 0.796944H108.645C113.259 0.796944 117 4.53778 117 9.15234V36.3074C117 40.922 113.259 44.6628 108.645 44.6628H8.37979C3.76523 44.6628 0.0243835 40.922 0.0243835 36.3074V9.15235Z" fill="#090909"/>
<g id="Logo" filter="url(#filter0_ii_340_325)">
<path id="Vector" d="M11.6994 11.9049C11.4467 12.1751 11.2973 12.5945 11.2973 13.1375V32.5402C11.2973 33.0842 11.4467 33.5027 11.6994 33.7729L11.7637 33.836L22.5245 22.967V22.8389V22.7108L11.7637 11.8408L11.6994 11.9049Z" fill="url(#paint0_linear_340_325)"/>
<path id="Vector_2" d="M26.1107 26.591L22.5244 22.9668V22.8387V22.7106L26.1116 19.0873L26.1924 19.1338L30.4423 21.5727C31.6557 22.2693 31.6557 23.409 30.4423 24.1064L26.1924 26.5454L26.1107 26.591Z" fill="url(#paint1_linear_340_325)"/>
<g id="Vector_3" filter="url(#filter1_i_340_325)">
<path d="M26.1928 26.5444L22.5239 22.8387L11.6997 33.7727C12.0992 34.2008 12.7602 34.2534 13.5046 33.8271L26.1928 26.5444Z" fill="url(#paint2_linear_340_325)"/>
</g>
<path id="Vector_4" d="M26.1928 19.1331L13.5046 11.8514C12.7602 11.4241 12.0992 11.4776 11.6997 11.9058L22.5248 22.8398L26.1928 19.1331Z" fill="url(#paint3_linear_340_325)"/>
</g>
<g id="Texto">
<path id="Google Play" d="M58.6449 23.9004C56.7155 23.9004 55.1429 25.3762 55.1429 27.4089C55.1429 29.4293 56.7155 30.9175 58.6449 30.9175C60.5752 30.9175 62.1478 29.4293 62.1478 27.4089C62.147 25.3762 60.5744 23.9004 58.6449 23.9004ZM58.6449 29.5365C57.5875 29.5365 56.6761 28.6596 56.6761 27.4098C56.6761 26.1467 57.5883 25.283 58.6449 25.283C59.7024 25.283 60.6138 26.1467 60.6138 27.4098C60.6138 28.6587 59.7024 29.5365 58.6449 29.5365ZM51.0043 23.9004C49.0748 23.9004 47.5022 25.3762 47.5022 27.4089C47.5022 29.4293 49.0748 30.9175 51.0043 30.9175C52.9345 30.9175 54.5071 29.4293 54.5071 27.4089C54.5071 25.3762 52.9345 23.9004 51.0043 23.9004ZM51.0043 29.5365C49.9468 29.5365 49.0354 28.6596 49.0354 27.4098C49.0354 26.1467 49.9476 25.283 51.0043 25.283C52.0617 25.283 52.9731 26.1467 52.9731 27.4098C52.9739 28.6587 52.0617 29.5365 51.0043 29.5365ZM41.9165 24.9778V26.466H45.4587C45.3529 27.3033 45.0756 27.9146 44.6523 28.3395C44.1371 28.8576 43.3307 29.4293 41.9165 29.4293C39.736 29.4293 38.0313 27.6614 38.0313 25.4686C38.0313 23.2759 39.736 21.508 41.9165 21.508C43.0928 21.508 43.9517 21.9733 44.5859 22.5714L45.6302 21.5212C44.7442 20.6707 43.5686 20.0198 41.9165 20.0198C38.9296 20.0198 36.4185 22.465 36.4185 25.4686C36.4185 28.4723 38.9296 30.9175 41.9165 30.9175C43.5284 30.9175 44.745 30.3854 45.6958 29.3888C46.6737 28.4055 46.978 27.0229 46.978 25.9067C46.978 25.5618 46.9518 25.2426 46.8984 24.977L41.9165 24.9778ZM79.0847 26.1335C78.7943 25.3498 77.9083 23.9004 76.0978 23.9004C74.3004 23.9004 72.8066 25.3226 72.8066 27.4089C72.8066 29.3756 74.2873 30.9175 76.2692 30.9175C77.8681 30.9175 78.7934 29.9341 79.1774 29.3624L77.9879 28.5647C77.5916 29.1496 77.0494 29.5348 76.2692 29.5348C75.4899 29.5348 74.9345 29.176 74.5777 28.4715L79.243 26.5312L79.0847 26.1335ZM74.3267 27.3033C74.2873 25.9471 75.371 25.2566 76.1511 25.2566C76.759 25.2566 77.2742 25.5627 77.4464 26.0007L74.3267 27.3033ZM70.5342 30.7055H72.0666V20.3927H70.5342V30.7055ZM68.0223 24.6849H67.9698C67.6261 24.2724 66.9649 23.9004 66.1331 23.9004C64.3882 23.9004 62.7893 25.4422 62.7893 27.423C62.7893 29.3897 64.3882 30.9183 66.1331 30.9183C66.9657 30.9183 67.6261 30.5462 67.9698 30.1214H68.0223V30.6263C68.0223 31.9685 67.3086 32.6862 66.1593 32.6862C65.2208 32.6862 64.6392 32.0089 64.4013 31.4372L63.0666 31.9957C63.4497 32.9254 64.4669 34.0688 66.1593 34.0688C67.9567 34.0688 69.4768 33.0054 69.4768 30.4134V24.114H68.0231L68.0223 24.6849ZM66.2651 29.5365C65.2077 29.5365 64.3226 28.6455 64.3226 27.423C64.3226 26.1863 65.2077 25.283 66.2651 25.283C67.3086 25.283 68.1281 26.1863 68.1281 27.423C68.1281 28.6455 67.3086 29.5365 66.2651 29.5365ZM86.266 20.3927H82.5982V30.7055H84.1281V26.7985H86.2651C87.9616 26.7985 89.6302 25.5635 89.6302 23.596C89.6302 21.6285 87.9624 20.3927 86.266 20.3927ZM86.3053 25.363H84.1281V21.8281H86.3053C87.4497 21.8281 88.0994 22.7809 88.0994 23.596C88.0994 24.3945 87.4497 25.363 86.3053 25.363ZM95.7656 23.8822C94.6573 23.8822 93.5096 24.3731 93.0346 25.4612L94.3931 26.0313C94.6835 25.4612 95.225 25.2748 95.7918 25.2748C96.5834 25.2748 97.3882 25.7524 97.4013 26.6013V26.7077C97.1241 26.5485 96.5301 26.3101 95.8049 26.3101C94.3406 26.3101 92.8492 27.1194 92.8492 28.6315C92.8492 30.0117 94.0502 30.9002 95.3956 30.9002C96.4243 30.9002 96.992 30.4357 97.348 29.8912H97.4005V30.6873H98.8788V26.7333C98.8796 24.9035 97.5195 23.8822 95.7656 23.8822ZM95.5802 29.534C95.0798 29.534 94.38 29.2816 94.38 28.6579C94.38 27.8618 95.2512 27.5566 96.0035 27.5566C96.6753 27.5566 96.9928 27.7026 97.4013 27.9014C97.2824 28.8576 96.4645 29.534 95.5802 29.534ZM104.262 24.1074L102.507 28.5787H102.455L100.633 24.1074H98.9846L101.716 30.3565L100.159 33.8329H101.755L105.964 24.1074H104.262ZM90.4752 30.7055H92.0051V20.3927H90.4752V30.7055Z" fill="white"/>
<g id="Get it on">
<path d="M41.7253 14.2927C41.7253 14.9715 41.5221 15.5118 41.1147 15.9152C40.6525 16.3947 40.0492 16.6344 39.3083 16.6344C38.5985 16.6344 37.9945 16.3914 37.4986 15.9054C37.0019 15.4186 36.7536 14.816 36.7536 14.0967C36.7536 13.3766 37.0019 12.7739 37.4986 12.2879C37.9945 11.8011 38.5985 11.5581 39.3083 11.5581C39.6607 11.5581 39.9976 11.6261 40.3172 11.7614C40.6377 11.8975 40.8942 12.0781 41.086 12.3041L40.6541 12.7318C40.3287 12.3471 39.8804 12.1551 39.3075 12.1551C38.7895 12.1551 38.342 12.3349 37.9641 12.6946C37.5863 13.0542 37.3978 13.5216 37.3978 14.0959C37.3978 14.6702 37.5863 15.1375 37.9641 15.4972C38.342 15.8568 38.7895 16.0367 39.3075 16.0367C39.8566 16.0367 40.3148 15.856 40.6811 15.494C40.9188 15.2582 41.0565 14.9302 41.0934 14.5098H39.3075V13.9258H41.6901C41.7147 14.0529 41.7253 14.1753 41.7253 14.2927Z" fill="white"/>
<path d="M45.5038 12.2629H43.2646V13.8035H45.2842V14.3875H43.2646V15.9282H45.5038V16.526H42.6327V11.6659H45.5038V12.2629Z" fill="white"/>
<path d="M48.1683 16.526H47.5364V12.2629H46.1627V11.6659H49.5419V12.2629H48.1683V16.526Z" fill="white"/>
<path d="M51.9868 16.526V11.6659H52.6187V16.526H51.9868Z" fill="white"/>
<path d="M55.4211 16.526H54.7892V12.2629H53.4155V11.6659H56.7948V12.2629H55.4211V16.526Z" fill="white"/>
<path d="M63.1916 15.8982C62.7081 16.3891 62.1073 16.6345 61.3885 16.6345C60.6697 16.6345 60.0689 16.3891 59.5862 15.8982C59.1026 15.4073 58.8616 14.8063 58.8616 14.0959C58.8616 13.3855 59.1026 12.7845 59.5862 12.2936C60.0689 11.8028 60.6697 11.5565 61.3885 11.5565C62.1032 11.5565 62.7032 11.8036 63.1884 12.2969C63.6736 12.7902 63.9162 13.3896 63.9162 14.0959C63.9162 14.8063 63.6744 15.4073 63.1916 15.8982ZM60.0525 15.4908C60.4164 15.8553 60.8615 16.0367 61.3885 16.0367C61.9155 16.0367 62.3614 15.8544 62.7245 15.4908C63.0884 15.1262 63.2712 14.6613 63.2712 14.0959C63.2712 13.5305 63.0884 13.0656 62.7245 12.7011C62.3614 12.3366 61.9155 12.1551 61.3885 12.1551C60.8615 12.1551 60.4164 12.3374 60.0525 12.7011C59.6894 13.0656 59.5067 13.5305 59.5067 14.0959C59.5067 14.6613 59.6894 15.1262 60.0525 15.4908Z" fill="white"/>
<path d="M64.803 16.526V11.6659H65.5718L67.9618 15.4462H67.9888L67.9618 14.5098V11.6659H68.5937V16.526H67.9339L65.4333 12.5618H65.4062L65.4333 13.4981V16.526H64.803Z" fill="white"/>
<path d="M41.7253 14.2927C41.7253 14.9715 41.5221 15.5118 41.1147 15.9152C40.6525 16.3947 40.0492 16.6344 39.3083 16.6344C38.5985 16.6344 37.9945 16.3914 37.4986 15.9054C37.0019 15.4186 36.7536 14.816 36.7536 14.0967C36.7536 13.3766 37.0019 12.7739 37.4986 12.2879C37.9945 11.8011 38.5985 11.5581 39.3083 11.5581C39.6607 11.5581 39.9976 11.6261 40.3172 11.7614C40.6377 11.8975 40.8942 12.0781 41.086 12.3041L40.6541 12.7318C40.3287 12.3471 39.8804 12.1551 39.3075 12.1551C38.7895 12.1551 38.342 12.3349 37.9641 12.6946C37.5863 13.0542 37.3978 13.5216 37.3978 14.0959C37.3978 14.6702 37.5863 15.1375 37.9641 15.4972C38.342 15.8568 38.7895 16.0367 39.3075 16.0367C39.8566 16.0367 40.3148 15.856 40.6811 15.494C40.9188 15.2582 41.0565 14.9302 41.0934 14.5098H39.3075V13.9258H41.6901C41.7147 14.0529 41.7253 14.1753 41.7253 14.2927Z" stroke="white" stroke-width="0.213597" stroke-miterlimit="10"/>
<path d="M45.5038 12.2629H43.2646V13.8035H45.2842V14.3875H43.2646V15.9282H45.5038V16.526H42.6327V11.6659H45.5038V12.2629Z" stroke="white" stroke-width="0.213597" stroke-miterlimit="10"/>
<path d="M48.1683 16.526H47.5364V12.2629H46.1627V11.6659H49.5419V12.2629H48.1683V16.526Z" stroke="white" stroke-width="0.213597" stroke-miterlimit="10"/>
<path d="M51.9868 16.526V11.6659H52.6187V16.526H51.9868Z" stroke="white" stroke-width="0.213597" stroke-miterlimit="10"/>
<path d="M55.4211 16.526H54.7892V12.2629H53.4155V11.6659H56.7948V12.2629H55.4211V16.526Z" stroke="white" stroke-width="0.213597" stroke-miterlimit="10"/>
<path d="M63.1916 15.8982C62.7081 16.3891 62.1073 16.6345 61.3885 16.6345C60.6697 16.6345 60.0689 16.3891 59.5862 15.8982C59.1026 15.4073 58.8616 14.8063 58.8616 14.0959C58.8616 13.3855 59.1026 12.7845 59.5862 12.2936C60.0689 11.8028 60.6697 11.5565 61.3885 11.5565C62.1032 11.5565 62.7032 11.8036 63.1884 12.2969C63.6736 12.7902 63.9162 13.3896 63.9162 14.0959C63.9162 14.8063 63.6744 15.4073 63.1916 15.8982ZM60.0525 15.4908C60.4164 15.8553 60.8615 16.0367 61.3885 16.0367C61.9155 16.0367 62.3614 15.8544 62.7245 15.4908C63.0884 15.1262 63.2712 14.6613 63.2712 14.0959C63.2712 13.5305 63.0884 13.0656 62.7245 12.7011C62.3614 12.3366 61.9155 12.1551 61.3885 12.1551C60.8615 12.1551 60.4164 12.3374 60.0525 12.7011C59.6894 13.0656 59.5067 13.5305 59.5067 14.0959C59.5067 14.6613 59.6894 15.1262 60.0525 15.4908Z" stroke="white" stroke-width="0.213597" stroke-miterlimit="10"/>
<path d="M64.803 16.526V11.6659H65.5718L67.9618 15.4462H67.9888L67.9618 14.5098V11.6659H68.5937V16.526H67.9339L65.4333 12.5618H65.4062L65.4333 13.4981V16.526H64.803Z" stroke="white" stroke-width="0.213597" stroke-miterlimit="10"/>
</g>
</g>
</g>
<defs>
<filter id="filter0_ii_340_325" x="11.2973" y="11.5565" width="20.0551" height="22.565" filterUnits="userSpaceOnUse" color-interpolation-filters="sRGB">
<feFlood flood-opacity="0" result="BackgroundImageFix"/>
<feBlend mode="normal" in="SourceGraphic" in2="BackgroundImageFix" result="shape"/>
<feColorMatrix in="SourceAlpha" type="matrix" values="0 0 0 0 0 0 0 0 0 0 0 0 0 0 0 0 0 0 127 0" result="hardAlpha"/>
<feOffset dy="-0.830318"/>
<feComposite in2="hardAlpha" operator="arithmetic" k2="-1" k3="1"/>
<feColorMatrix type="matrix" values="0 0 0 0 0 0 0 0 0 0 0 0 0 0 0 0 0 0 0.12 0"/>
<feBlend mode="normal" in2="shape" result="effect1_innerShadow_340_325"/>
<feColorMatrix in="SourceAlpha" type="matrix" values="0 0 0 0 0 0 0 0 0 0 0 0 0 0 0 0 0 0 127 0" result="hardAlpha"/>
<feOffset dy="0.830318"/>
<feComposite in2="hardAlpha" operator="arithmetic" k2="-1" k3="1"/>
<feColorMatrix type="matrix" values="0 0 0 0 1 0 0 0 0 1 0 0 0 0 1 0 0 0 0.25 0"/>
<feBlend mode="normal" in2="effect1_innerShadow_340_325" result="effect2_innerShadow_340_325"/>
</filter>
<filter id="filter1_i_340_325" x="11.6997" y="22.8387" width="14.4931" height="11.2829" filterUnits="userSpaceOnUse" color-interpolation-filters="sRGB">
<feFlood flood-opacity="0" result="BackgroundImageFix"/>
<feBlend mode="normal" in="SourceGraphic" in2="BackgroundImageFix" result="shape"/>
<feColorMatrix in="SourceAlpha" type="matrix" values="0 0 0 0 0 0 0 0 0 0 0 0 0 0 0 0 0 0 127 0" result="hardAlpha"/>
<feOffset dy="-0.830318"/>
<feComposite in2="hardAlpha" operator="arithmetic" k2="-1" k3="1"/>
<feColorMatrix type="matrix" values="0 0 0 0 0 0 0 0 0 0 0 0 0 0 0 0 0 0 0.08 0"/>
<feBlend mode="normal" in2="shape" result="effect1_innerShadow_340_325"/>
</filter>
<linearGradient id="paint0_linear_340_325" x1="21.5707" y1="12.9322" x2="6.84828" y2="27.508" gradientUnits="userSpaceOnUse">
<stop stop-color="#00A0FF"/>
<stop offset="0.0066" stop-color="#00A1FF"/>
<stop offset="0.2601" stop-color="#00BEFF"/>
<stop offset="0.5122" stop-color="#00D2FF"/>
<stop offset="0.7604" stop-color="#00DFFF"/>
<stop offset="1" stop-color="#00E3FF"/>
</linearGradient>
<linearGradient id="paint1_linear_340_325" x1="32.0218" y1="22.8387" x2="11.0058" y2="22.8387" gradientUnits="userSpaceOnUse">
<stop stop-color="#FFE000"/>
<stop offset="0.4087" stop-color="#FFBD00"/>
<stop offset="0.7754" stop-color="#FFA500"/>
<stop offset="1" stop-color="#FF9C00"/>
</linearGradient>
<linearGradient id="paint2_linear_340_325" x1="24.2004" y1="24.8511" x2="4.23493" y2="44.6177" gradientUnits="userSpaceOnUse">
<stop stop-color="#FF3A44"/>
<stop offset="1" stop-color="#C31162"/>
</linearGradient>
<linearGradient id="paint3_linear_340_325" x1="8.97354" y1="5.44678" x2="17.8886" y2="14.2731" gradientUnits="userSpaceOnUse">
<stop stop-color="#32A071"/>
<stop offset="0.0685" stop-color="#2DA771"/>
<stop offset="0.4762" stop-color="#15CF74"/>
<stop offset="0.8009" stop-color="#06E775"/>
<stop offset="1" stop-color="#00F076"/>
</linearGradient>
</defs>
</svg>
