<svg width="95" height="57" viewBox="0 0 95 57" fill="none" xmlns="http://www.w3.org/2000/svg">
<path id="Vector" d="M32.0512 0.298492C30.2264 0.956753 28.984 2.04095 28.4987 3.41555C28.1298 4.48038 28.1881 8.37186 28.5957 9.41733L28.9063 10.2498H27.761C27.1203 10.2498 26.5962 10.1724 26.5962 10.0562C26.5962 9.95943 26.3438 9.57222 26.0138 9.22373C25.6061 8.73971 25.4314 8.3525 25.4314 7.86848C25.4314 6.2422 23.6066 5.21608 20.7723 5.21608C18.8892 5.21608 17.5497 5.60329 16.5791 6.45516C15.8996 7.03598 15.822 7.19086 15.822 8.04273C15.822 8.56546 15.8802 9.28181 15.9579 9.61094C16.0937 10.2305 16.0743 10.2498 15.5308 10.2498H14.9484V7.01662C14.9484 3.26067 14.7154 2.48624 13.3371 1.57629C12.58 1.07292 12.4247 1.05356 9.55155 0.99548C6.09604 0.918037 5.26128 1.11164 4.29063 2.21519C3.53352 3.08642 3.30056 4.30614 3.30056 7.53936V10.2498H2.62111C1.35926 10.2498 0.5245 11.6825 1.22337 12.5925C1.55339 13.0184 2.21343 13.3475 2.77641 13.3475C3.04819 13.3475 3.31998 13.4831 3.37821 13.6573C3.43645 13.8315 3.49469 15.1868 3.49469 16.6969C3.49469 19.9688 3.76647 20.782 5.18362 21.6726C6.23193 22.3502 7.3773 22.4857 10.3281 22.2921C12.3082 22.1566 12.677 22.0792 13.3759 21.6145C13.803 21.3241 14.366 20.7239 14.5989 20.2593C15.0066 19.5042 15.0454 19.1944 15.0454 16.3484V13.2507L16.1714 13.1926L17.2779 13.1346V14.2575C17.2779 14.8964 17.4138 15.9031 17.5691 16.5033C17.7244 17.1228 17.8603 17.8005 17.8603 18.0134C17.8603 18.2264 18.035 18.7298 18.2292 19.117C18.4427 19.5042 19.0057 20.6852 19.491 21.7307C21.0052 24.9639 22.5971 26.9774 25.2179 28.9328C27.9745 31.0044 31.5853 32.6694 34.9438 33.4245L36.5551 33.7729L36.9433 34.741C37.1763 35.2637 37.8751 36.7351 38.4964 37.9936L39.6611 40.2975L39.3699 41.188C39.0399 42.2335 39.0011 42.2335 37.3704 41.5365C35.6815 40.8202 34.0314 40.8396 32.6919 41.5946C31.5271 42.2722 30.5564 43.3177 30.0517 44.46C29.3722 46.0088 29.9741 46.822 31.993 47.0737C33.2743 47.2285 35.4097 48.1191 36.4774 48.9323C36.8851 49.2614 36.9239 49.3776 36.7686 50.0552C36.6133 50.6747 36.4386 50.8683 35.6232 51.2749C34.8079 51.7008 34.6332 51.8944 34.5167 52.514C34.4196 52.998 34.4585 53.4627 34.6138 53.8692L34.8855 54.4888L33.7402 54.7792C33.0995 54.9341 32.5754 55.147 32.556 55.2632C32.3424 56.4055 54.8615 56.7733 60.9184 55.7278C62.0055 55.5342 62.5103 55.2826 62.2579 55.0502C62.2191 55.0115 61.6561 54.876 60.9961 54.7598L59.8313 54.5468L60.1031 53.8692C60.6078 52.6689 60.1031 51.4298 58.9965 51.1975C58.2782 51.0426 58.22 50.9071 57.4823 48.1966C57.1523 46.9769 56.434 44.5761 55.871 42.8531L54.8421 39.7554L55.3857 38.7873C55.6963 38.2646 56.3563 36.9674 56.8805 35.8832L57.8123 33.9278L59.3265 33.5793C64.4322 32.3983 69.3242 29.7459 72.178 26.5902C73.498 25.1381 74.6434 23.2989 75.4976 21.266C75.8276 20.4722 76.3129 19.4461 76.5653 18.9621C76.973 18.149 77.4001 15.9612 77.5165 14.0252L77.5554 13.2507L78.759 13.1926L79.9432 13.1346L80.0208 16.3871C80.0791 20.0463 80.2149 20.4335 81.5933 21.5371C82.2727 22.0985 82.4474 22.1372 84.6993 22.2921C86 22.3696 87.5142 22.3889 88.0772 22.3308C89.3585 22.176 90.4844 21.4596 91.0862 20.4335C91.4939 19.7172 91.5327 19.3493 91.6298 16.4646L91.7269 13.3088L92.484 13.2507C93.377 13.1926 94.1535 12.4569 94.1535 11.6825C94.1535 10.9081 93.3381 10.2498 92.4063 10.2498H91.6298L91.6492 6.95853C91.6686 3.16386 91.5133 2.64112 90.0962 1.63437C89.2808 1.05355 89.242 1.05356 86.33 0.99548C82.3504 0.898678 81.4185 1.2278 80.5256 2.9509C80.1761 3.64788 80.0985 4.18997 80.0208 6.99726L79.9237 10.2498H79.3025C78.6619 10.2498 78.6619 10.2498 78.8366 9.51413C79.1861 8.00401 79.0696 7.36511 78.2736 6.57133C77.3224 5.62266 75.9635 5.21608 73.7892 5.21608C71.1879 5.21608 69.5766 6.12603 69.3631 7.67488C69.2854 8.2557 69.1495 8.46866 68.6448 8.70099C68.3148 8.85588 67.8683 9.26244 67.6547 9.61094C67.4024 10.0175 67.1112 10.2305 66.8005 10.2498C66.4899 10.2498 66.3929 10.1724 66.4511 9.97879C67.1888 8.10081 67.2859 4.69335 66.6452 3.28003C65.7911 1.34397 63.8498 0.182335 61.3067 0.0274506C60.0642 -0.0499916 59.5595 0.0274467 58.5694 0.375938C56.0069 1.30524 54.0462 2.93154 52.299 5.56458C52.2796 5.6033 51.7166 5.48713 51.0372 5.29353C49.4259 4.86759 46.1839 4.86759 44.3785 5.29353C43.6408 5.46777 43.0196 5.58393 42.9808 5.56458C42.9614 5.52586 42.5343 4.98376 42.0295 4.34486C40.8259 2.79601 39.4088 1.63438 37.681 0.801872C36.4192 0.201694 36.0115 0.104889 34.5749 0.0468063C33.3907 0.00808716 32.653 0.0855293 32.0512 0.298492ZM34.2837 2.93154C35.9533 4.73207 36.8463 6.35836 37.2733 8.33313C37.5063 9.39797 37.5063 9.45605 36.9433 10.2692C36.6327 10.7338 36.1668 11.5276 35.9144 12.0504C35.4679 12.9022 35.3903 12.9603 34.8467 12.8442C32.9054 12.4376 31.2941 11.2372 30.4594 9.57221C29.8964 8.42994 29.8382 8.12017 29.8187 6.51324C29.7993 4.3255 30.1488 3.37683 31.333 2.54432C31.76 2.23455 32.2648 1.94415 32.4201 1.88607C32.8278 1.75054 33.5849 2.15712 34.2837 2.93154ZM59.4624 1.96351C59.3654 2.09903 58.9771 2.6024 58.5888 3.08642C57.4046 4.57718 56.8805 5.7001 56.3758 7.69424L55.9098 9.64966L56.9387 11.1598C58.4724 13.4056 59.3459 15.9225 59.8119 19.4461C60.2195 22.5438 59.773 24.2669 58.1229 26.1062C56.6087 27.7712 53.8326 29.049 50.8042 29.4555C48.8629 29.7072 44.825 29.533 43.1361 29.1264C40.2435 28.4294 37.6034 26.7451 36.3609 24.8284C35.4679 23.415 35.2544 22.3115 35.5068 20.0657C35.9727 15.9031 36.9239 13.3475 39.1176 10.3273C39.3894 9.95943 39.3894 9.70774 39.1952 8.58483C38.807 6.26156 38.0305 4.57719 36.5551 2.73793C36.1862 2.29264 35.9533 1.92479 36.0503 1.92479C36.458 1.94415 38.5352 3.22195 38.477 3.45427C38.4575 3.5898 38.5158 3.62852 38.6517 3.55107C38.9429 3.37683 40.8648 5.42905 41.6413 6.72621C41.9907 7.32639 42.3984 7.73296 42.6507 7.79104C42.8837 7.82976 43.0584 7.77168 43.039 7.67488C42.9614 7.32639 45.2909 6.74557 47.0769 6.66813C48.8823 6.59068 50.9983 6.90046 52.2408 7.42319L52.9397 7.7136L53.7744 6.4358C54.9586 4.6159 56.3758 3.29939 58.0259 2.44752C59.5789 1.6731 59.7342 1.61502 59.4624 1.96351ZM63.7721 2.5056C64.1992 2.79601 64.7428 3.37683 64.9951 3.7834C65.4028 4.48038 65.4416 4.71271 65.364 6.57133C65.2669 8.91396 64.9951 9.68838 63.8692 10.9081C63.1315 11.7019 61.559 12.5537 60.3554 12.8442C59.9089 12.941 59.7924 12.8635 59.5983 12.3601C59.4624 12.031 58.9965 11.2372 58.5694 10.579C57.7541 9.32053 57.7153 8.93332 58.2394 7.11342C58.5306 6.12603 60.1419 3.74468 61.2678 2.66049C62.3161 1.61502 62.4909 1.61502 63.7721 2.5056ZM23.1601 7.09406C24.6549 7.96529 24.0531 10.637 22.3836 10.637C22.0147 10.637 21.5294 10.5402 21.3158 10.4241C20.9858 10.2498 20.7335 10.2886 20.0734 10.637C18.4621 11.4308 17.4915 10.7726 17.3168 8.83651C17.2391 7.8104 17.2585 7.77168 17.8992 7.38447C18.268 7.15214 18.9086 6.88109 19.3357 6.78429C20.4034 6.51324 22.4418 6.68749 23.1601 7.09406ZM76.507 7.15214C77.5748 7.7136 77.6913 7.90721 77.4583 9.10756C77.1089 10.8887 76.1382 11.4502 74.7599 10.6177C74.2163 10.2886 74.0028 10.2692 73.5174 10.4241C72.5662 10.7726 71.8479 10.6758 71.3432 10.153C70.9355 9.76582 70.8579 9.49477 70.8579 8.62355C70.8579 7.67488 70.9161 7.50063 71.3626 7.22958C71.6344 7.03598 72.178 6.82301 72.5662 6.74557C73.6145 6.5326 75.6917 6.74557 76.507 7.15214ZM69.6737 10.5015C69.7707 10.7532 70.1202 11.1791 70.4502 11.4696C70.7802 11.7406 71.052 12.031 71.052 12.1085C71.052 12.3408 69.0525 12.0117 68.8777 11.76C68.6448 11.3921 68.6836 10.5596 68.9554 10.2886C69.3048 9.94007 69.4795 9.99815 69.6737 10.5015ZM25.2373 11.063C25.2373 11.7793 24.9849 11.9923 23.956 12.1085L23.0048 12.2246L23.8395 11.7987C24.286 11.5664 24.7519 11.1985 24.8684 11.0049C25.1208 10.5209 25.2373 10.5402 25.2373 11.063ZM32.1871 13.5218C32.5754 13.7154 33.3519 14.0252 33.8955 14.1994L34.8855 14.5285L34.5555 15.7289L34.2255 16.9292L32.9831 16.9873C32.3036 17.026 31.663 17.1228 31.5659 17.2196C31.4689 17.3164 31.0418 17.1422 30.537 16.7937C29.6052 16.1742 27.858 15.4772 27.1397 15.4772C26.8291 15.4772 26.5185 15.1868 26.0526 14.4898C25.7032 13.9671 25.4702 13.4443 25.5285 13.3475C25.6061 13.2314 26.9068 13.1539 28.5569 13.1539C31.0029 13.1539 31.5853 13.212 32.1871 13.5218ZM68.7613 13.4056L69.3048 13.6379L68.7224 14.5285C68.1983 15.3029 68.0236 15.4385 67.3053 15.5353C66.8588 15.5934 65.8299 15.9806 65.034 16.3871C63.6945 17.0648 63.4809 17.1228 62.3355 17.026L61.0931 16.9292L60.7437 15.7095C60.4137 14.5672 60.4137 14.4898 60.7243 14.393C60.899 14.3349 61.6755 14.0445 62.4132 13.7541C63.6168 13.2507 64.0245 13.1926 66.0046 13.1926C67.3441 13.1733 68.4507 13.2701 68.7613 13.4056ZM23.2766 13.8703C23.9948 14.4124 25.0431 15.8257 25.1596 16.4259C25.2567 16.9099 25.3926 16.968 26.7321 17.1809C28.1881 17.4133 29.877 18.1683 30.5176 18.904C30.6923 19.0976 31.3912 20.782 32.0901 22.6406C32.7889 24.4992 33.779 27.1129 34.3226 28.4488C35.6232 31.7207 35.6232 31.7401 35.1962 31.7401C34.7497 31.7401 32.9248 31.1012 32.8472 30.9076C32.8084 30.8301 32.6919 30.8108 32.6142 30.8689C32.5172 30.9269 32.2842 30.9076 32.0901 30.8108C31.8959 30.714 31.0418 30.3074 30.1876 29.9202C28.1881 28.9909 26.1691 27.6937 26.3438 27.4227C26.4021 27.3065 26.3632 27.2871 26.2467 27.3646C25.975 27.5195 25.0237 26.7063 25.179 26.4546C25.2373 26.3385 25.1984 26.3191 25.082 26.3966C24.9655 26.4546 24.6937 26.2804 24.4802 26.0094C24.2472 25.7189 24.0725 25.5641 24.0725 25.6415C24.0725 25.7189 23.8007 25.4673 23.4901 25.0607C23.1601 24.6541 22.9465 24.1895 23.0048 24.0539C23.0436 23.899 23.0242 23.841 22.9077 23.899C22.7136 24.0152 21.7429 22.6987 21.7429 22.3115C21.7429 22.176 21.6459 22.0598 21.5294 22.0598C21.4129 22.0598 21.3547 21.8855 21.4129 21.6726C21.4711 21.4596 21.4517 21.3241 21.3547 21.3822C21.1605 21.4983 20.3452 19.7752 20.4811 19.5429C20.5587 19.4268 20.5005 19.3493 20.4034 19.3493C20.287 19.3493 20.1899 19.1944 20.1899 19.0008C20.1899 18.8072 20.054 18.4587 19.8599 18.207C19.6852 17.9553 19.5298 17.5101 19.491 17.239C19.4716 16.968 19.3551 16.3871 19.2387 15.9612C19.0057 15.0706 18.9669 13.6767 19.1804 13.4637C19.2581 13.3669 20.0928 13.3475 21.0441 13.4056C22.3253 13.4637 22.8883 13.5799 23.2766 13.8703ZM75.6917 14.0252C75.7694 14.8189 75.3035 17.7811 75.0317 18.0715C74.9152 18.1877 74.7211 18.6523 74.5852 19.117C74.4493 19.5623 74.2551 19.8914 74.1581 19.8333C74.0416 19.7752 74.0222 19.8527 74.0804 20.0076C74.1969 20.3367 73.5174 21.6919 72.275 23.6086C71.4208 24.9445 69.6348 26.8031 68.1206 27.9454C67.0723 28.7392 64.2963 30.1525 62.4326 30.8495C61.1125 31.3529 59.0159 31.9531 59.0159 31.8369C59.0159 31.7401 60.4525 28.3133 61.3455 26.3191C61.792 25.3124 62.685 23.2602 63.3062 21.7694C63.9468 20.2786 64.6069 18.8459 64.7622 18.6136C65.1893 17.9747 66.8782 17.239 68.2953 17.1035C69.3437 16.9873 69.4795 16.9292 69.596 16.4839C69.7513 15.8257 70.722 14.4704 71.4597 13.8509C72.0421 13.3669 72.1585 13.3282 73.8475 13.3862L75.6141 13.4443L75.6917 14.0252ZM37.8946 28.8166C38.3993 29.1458 39.2146 29.5911 39.7 29.804C40.1853 30.017 41.0395 30.6365 41.6024 31.2173C44.6697 34.3344 49.5618 34.4699 52.7067 31.5271C53.2503 31.0237 54.1433 30.4236 54.7062 30.2106C56.2204 29.6104 57.094 29.1264 58.1035 28.3713L58.9965 27.6937L58.5112 28.9909C56.7834 33.5793 54.881 37.8387 54.1238 38.8067C53.5997 39.4843 52.4349 40.0458 50.8819 40.3749C49.29 40.704 48.2223 40.704 49.6977 40.3555C51.8913 39.8522 52.7843 39.252 53.5997 37.6838C54.2209 36.5028 56.2787 31.7401 56.1816 31.7401C56.1234 31.7401 56.2205 31.5465 56.3758 31.3142C56.8223 30.6946 56.764 30.5204 56.1622 30.6753C55.1721 30.9076 54.0268 31.5465 53.1726 32.3403C51.3284 34.0634 49.7365 34.5667 46.6498 34.4118C45.0386 34.3344 44.5532 34.2376 43.4855 33.7149C42.7866 33.3857 41.7772 32.7081 41.2142 32.1854C40.6706 31.6626 39.7776 31.0625 39.2341 30.8301C38.6905 30.5978 38.244 30.4429 38.244 30.4816C38.244 30.714 40.6706 36.5221 40.9618 36.9674C41.0783 37.1223 41.253 37.4708 41.3501 37.7225C42.0101 39.252 43.3496 40.0458 46.0092 40.5298C46.281 40.5879 45.8927 40.5879 45.1744 40.5298C43.6408 40.433 41.9907 39.8522 41.1365 39.1552C40.2629 38.4195 38.3605 34.315 36.3609 28.836L35.7009 26.9967L36.3415 27.5969C36.691 27.926 37.3898 28.4681 37.8946 28.8166ZM46.6887 31.2561C47.5428 31.3142 48.8823 31.2948 49.6589 31.198C50.416 31.1205 51.0566 31.1012 51.0566 31.1593C51.0566 31.2173 50.6489 31.4884 50.1442 31.7207C48.3388 32.6113 45.3297 32.4371 43.7767 31.3335L43.1943 30.9269L44.165 31.0431C44.7085 31.1012 45.8345 31.198 46.6887 31.2561ZM53.1726 42.4465C52.3378 42.8337 52.0272 42.7563 52.0272 42.1948C52.0272 41.9625 52.299 41.6721 52.7649 41.4397L53.4832 41.0525L53.7162 41.5753C53.9297 42.0786 53.9103 42.1174 53.1726 42.4465ZM42.0295 41.6914C42.7284 42.0012 42.8061 42.1174 42.5343 42.5433C42.2819 42.9499 40.9618 42.3303 40.9618 41.8269C40.9618 41.3429 41.1365 41.3236 42.0295 41.6914ZM37.2928 43.3564C38.2246 43.8404 38.4381 44.0341 38.3216 44.2857C38.2634 44.46 38.011 45.2925 37.7975 46.1056L37.4092 47.6158L36.8074 47.2092C35.565 46.396 33.1578 45.4861 32.226 45.4861C31.4883 45.4861 31.4883 45.1763 32.2454 44.1502C33.449 42.4852 35.0603 42.2335 37.2928 43.3564ZM43.0002 43.55C43.5437 43.6275 44.495 43.6662 45.1356 43.6275L46.3004 43.5694L45.2327 43.8404C43.369 44.3438 40.3794 44.0341 40.3794 43.3371C40.3794 43.1822 40.6124 43.1628 41.2142 43.2596C41.6607 43.3371 42.476 43.4726 43.0002 43.55ZM54.3568 43.3758C54.3568 43.8017 53.095 44.0921 51.3478 44.0341C48.7853 43.9566 48.0864 43.5888 50.4742 43.5888C51.4837 43.5694 52.5902 43.492 52.9008 43.3758C53.6968 43.1241 54.3568 43.1241 54.3568 43.3758ZM41.9325 44.673C42.8061 44.7698 42.9031 44.8085 42.4372 44.9053C41.9519 44.9827 41.816 45.157 41.5054 46.0669C41.3113 46.6477 41.1171 47.2479 41.0589 47.3834C40.9812 47.577 40.8648 47.577 40.4183 47.3447C39.3117 46.7833 39.3117 46.7058 40.0882 44.5374C40.1465 44.3825 40.3212 44.3438 40.5347 44.4213C40.7094 44.4987 41.3501 44.5955 41.9325 44.673ZM54.978 45.4861C55.2498 46.2799 55.2692 46.5703 55.0945 46.7833C54.8615 47.0737 53.7744 47.6932 53.6968 47.577C53.6773 47.5383 53.4832 46.9575 53.2697 46.2605C52.9202 45.157 52.8038 44.9827 52.299 44.8859C51.8137 44.7698 51.8525 44.7504 52.6096 44.7117C53.095 44.6923 53.6579 44.6149 53.8715 44.5181C54.4733 44.2664 54.5898 44.3632 54.978 45.4861ZM39.7582 48.9516C40.1465 49.1452 40.7677 49.3776 41.1171 49.455C41.4471 49.5131 41.7383 49.6486 41.7383 49.7261C41.7383 49.9584 40.7483 50.423 40.36 50.365C40.1271 50.3262 39.8164 50.6554 39.3311 51.4492C38.9429 52.0881 38.6323 52.727 38.6323 52.8818C38.6323 53.3271 37.5645 53.6175 36.788 53.3659C35.9338 53.1142 36.0115 52.8044 36.9627 52.5721C37.7975 52.3785 37.9528 52.1074 38.5352 49.8809C38.7293 49.1646 38.9235 48.5838 38.9623 48.5838C39.0011 48.5838 39.3505 48.7387 39.7582 48.9516ZM56.2981 50.1714C56.8611 52.2623 56.9387 52.3785 57.7929 52.5914C58.7441 52.8044 58.8024 53.1142 57.9482 53.3852C57.094 53.6369 56.104 53.3659 56.104 52.8625C56.104 52.6882 55.7934 52.0493 55.4051 51.4298C54.8421 50.5198 54.6286 50.3262 54.1821 50.3262C53.8909 50.3262 53.5026 50.1714 53.3279 49.9778C53.0173 49.6486 53.0561 49.6099 54.1627 49.2808C54.8033 49.0872 55.3857 48.8548 55.4439 48.758C55.6963 48.3515 55.8904 48.6806 56.2981 50.1714ZM46.1063 49.668C45.3297 50.2682 44.2232 50.7328 43.7185 50.6747L43.2137 50.6167L43.7573 50.2488C44.2426 49.939 45.718 49.4357 46.3004 49.3969C46.4169 49.3776 46.3198 49.5131 46.1063 49.668ZM49.8336 49.7454C50.1636 49.8229 51.076 50.3262 51.8719 50.849C52.6485 51.3717 53.522 51.9525 53.7938 52.1268C54.085 52.301 54.3568 52.6689 54.3956 52.9786C54.4539 53.2691 54.5509 53.6563 54.6286 53.8111C54.7256 54.0628 53.8521 54.1016 47.3875 54.1016C40.5541 54.1016 40.0494 54.0822 40.2047 53.7724C40.3018 53.5982 40.3794 53.2303 40.3794 52.9786C40.3794 52.1655 40.7871 51.9913 42.1654 52.2236C44.2814 52.5914 45.8927 52.03 47.4652 50.4037C48.2029 49.6486 48.5329 49.4163 48.8241 49.4937C49.0376 49.5518 49.4841 49.668 49.8336 49.7454Z" fill="black"/>
</svg>
