<svg width="127" height="76" viewBox="0 0 127 76" fill="none" xmlns="http://www.w3.org/2000/svg">
<path id="Vector" d="M42.0872 0.399872C39.6162 1.28174 37.9339 2.73423 37.2767 4.57578C36.7772 6.00232 36.8561 11.2157 37.4081 12.6163L37.8287 13.7316H36.2778C35.4103 13.7316 34.7006 13.6279 34.7006 13.4722C34.7006 13.3425 34.3589 12.8238 33.912 12.3569C33.36 11.7085 33.1234 11.1898 33.1234 10.5413C33.1234 8.3626 30.6524 6.98793 26.8146 6.98793C24.2647 6.98793 22.451 7.50668 21.1366 8.64791C20.2166 9.42603 20.1114 9.63352 20.1114 10.7748C20.1114 11.4751 20.1903 12.4347 20.2954 12.8757C20.4795 13.7057 20.4532 13.7316 19.7171 13.7316H18.9285V9.40009C18.9285 4.36827 18.6131 3.33078 16.7467 2.11173C15.7215 1.43736 15.5112 1.41143 11.6208 1.33362C6.94176 1.22987 5.81143 1.48924 4.49709 2.96766C3.47191 4.13483 3.15647 5.76888 3.15647 10.1004V13.7316H2.23643C0.52779 13.7316 -0.602541 15.651 0.343783 16.87C0.790658 17.4406 1.68441 17.8816 2.44672 17.8816C2.81474 17.8816 3.18275 18.0631 3.26161 18.2966C3.34047 18.53 3.41933 20.3456 3.41933 22.3687C3.41933 26.7521 3.78735 27.8415 5.70628 29.0346C7.12577 29.9424 8.67669 30.1239 12.6723 29.8646C15.3535 29.683 15.853 29.5793 16.7993 28.9568C17.3776 28.5677 18.1399 27.7636 18.4554 27.1412C19.0074 26.1296 19.06 25.7146 19.06 21.9018V17.7519L20.5846 17.6741L22.0829 17.5963V19.1006C22.0829 19.9565 22.267 21.3053 22.4772 22.1093C22.6875 22.9393 22.8715 23.8471 22.8715 24.1324C22.8715 24.4177 23.1081 25.0921 23.371 25.6109C23.6601 26.1296 24.4225 27.7118 25.0796 29.1124C27.13 33.4439 29.2855 36.1414 32.8342 38.761C36.567 41.5363 41.4563 43.7669 46.0039 44.7785L48.1857 45.2453L48.7114 46.5422C49.0269 47.2425 49.9732 49.2137 50.8144 50.8996L52.3916 53.9862L51.9973 55.1793C51.5504 56.5799 51.4978 56.5799 49.2897 55.6462C47.0028 54.6865 44.7684 54.7124 42.9546 55.724C41.3774 56.6318 40.0631 58.0324 39.3796 59.5627C38.4596 61.6376 39.2745 62.727 42.0083 63.0642C43.7432 63.2717 46.6348 64.4648 48.0806 65.5542C48.6326 65.9951 48.6852 66.1507 48.4749 67.0585C48.2646 67.8885 48.028 68.1479 46.9239 68.6926C45.8199 69.2632 45.5833 69.5226 45.4256 70.3526C45.2942 71.001 45.3467 71.6235 45.557 72.1682L45.925 72.9981L44.3741 73.3872C43.5067 73.5947 42.7969 73.88 42.7706 74.0356C42.4815 75.5659 72.9741 76.0587 81.1756 74.6581C82.6477 74.3988 83.3311 74.0616 82.9894 73.7503C82.9368 73.6985 82.1745 73.5169 81.2807 73.3613L79.7035 73.076L80.0716 72.1682C80.755 70.5601 80.0716 68.9001 78.5732 68.5888C77.6006 68.3813 77.5217 68.1998 76.5228 64.5686C76.076 62.9345 75.1034 59.7183 74.341 57.4099L72.9478 53.2599L73.6839 51.9631C74.1045 51.2628 74.9982 49.525 75.7079 48.0725L76.9697 45.4528L79.0201 44.986C85.9335 43.4038 92.5578 39.8504 96.4219 35.6226C98.2094 33.6773 99.7604 31.2133 100.917 28.4899C101.364 27.4265 102.021 26.0518 102.363 25.4034C102.915 24.314 103.493 21.3831 103.651 18.7894L103.703 17.7519L105.333 17.6741L106.937 17.5963L107.042 21.9537C107.121 26.8558 107.305 27.3746 109.171 28.853C110.091 29.6052 110.328 29.6571 113.377 29.8646C115.138 29.9683 117.188 29.9942 117.951 29.9164C119.686 29.7089 121.21 28.7493 122.025 27.3746C122.577 26.4149 122.63 25.9221 122.761 22.0575L122.893 17.8297L123.918 17.7519C125.127 17.6741 126.179 16.6884 126.179 15.651C126.179 14.6135 125.075 13.7316 123.813 13.7316H122.761L122.788 9.32227C122.814 4.23858 122.604 3.53828 120.685 2.18954C119.581 1.41142 119.528 1.41143 115.585 1.33362C110.196 1.20393 108.934 1.64486 107.725 3.95328C107.252 4.88702 107.147 5.61326 107.042 9.37415L106.91 13.7316H106.069C105.202 13.7316 105.202 13.7316 105.438 12.746C105.911 10.7229 105.754 9.86696 104.676 8.80354C103.388 7.53262 101.548 6.98793 98.6037 6.98793C95.0813 6.98793 92.8995 8.20698 92.6103 10.282C92.5052 11.0601 92.3212 11.3454 91.6377 11.6566C91.1909 11.8641 90.5863 12.4088 90.2971 12.8757C89.9554 13.4204 89.5611 13.7057 89.1405 13.7316C88.7199 13.7316 88.5885 13.6279 88.6673 13.3685C89.6662 10.8526 89.7977 6.28762 88.9302 4.3942C87.7736 1.80048 85.1449 0.244255 81.7013 0.0367584C80.019 -0.0669937 79.3355 0.0367508 77.9949 0.503624C74.525 1.74861 71.8701 3.92734 69.5043 7.4548C69.478 7.50668 68.7157 7.35105 67.7956 7.09167C65.6138 6.52106 61.2239 6.52106 58.7793 7.09167C57.7804 7.32511 56.9392 7.48074 56.8866 7.4548C56.8603 7.40292 56.282 6.67669 55.5986 5.82076C53.9688 3.74578 52.0499 2.18954 49.7103 1.07425C48.0017 0.270195 47.4497 0.140503 45.5045 0.0626907C43.901 0.0108185 42.9021 0.114563 42.0872 0.399872ZM45.1101 3.92734C47.3708 6.3395 48.58 8.51822 49.1583 11.1638C49.4738 12.5904 49.4738 12.6682 48.7114 13.7575C48.2909 14.38 47.66 15.4435 47.3182 16.1438C46.7136 17.285 46.6085 17.3628 45.8725 17.2072C43.2438 16.6625 41.062 15.0544 39.9317 12.8238C39.1693 11.2935 39.0905 10.8785 39.0642 8.72572C39.0379 5.79482 39.5111 4.5239 41.1146 3.40859C41.6929 2.9936 42.3763 2.60455 42.5866 2.52673C43.1386 2.34517 44.1638 2.88985 45.1101 3.92734ZM79.2041 2.63048C79.0727 2.81204 78.5469 3.4864 78.0212 4.13483C76.4177 6.132 75.708 7.63636 75.0245 10.3079L74.3936 12.9276L75.7868 14.9507C77.8635 17.9594 79.0464 21.3312 79.6773 26.0518C80.2293 30.2017 79.6247 32.5102 77.3903 34.9742C75.3399 37.2048 71.5809 38.9166 67.4802 39.4613C64.8515 39.7985 59.3839 39.5651 57.0969 39.0204C53.1802 38.0867 49.6052 35.8301 47.9228 33.2623C46.7136 31.3689 46.4245 29.8905 46.7662 26.8818C47.3971 21.3053 48.6852 17.8816 51.6556 13.8354C52.0236 13.3425 52.0236 13.0054 51.7607 11.501C51.235 8.38854 50.1835 6.132 48.1857 3.66797C47.6863 3.07141 47.3708 2.57861 47.5022 2.57861C48.0543 2.60455 50.867 4.3164 50.7881 4.62765C50.7618 4.8092 50.8407 4.86108 51.0247 4.75733C51.419 4.5239 54.0214 7.27324 55.0728 9.01103C55.546 9.81509 56.098 10.3598 56.4398 10.4376C56.7552 10.4895 56.9918 10.4116 56.9655 10.282C56.8603 9.81509 60.0148 9.03697 62.4331 8.93322C64.8778 8.82947 67.7431 9.24447 69.4254 9.94477L70.3717 10.3338L71.5021 8.62197C73.1056 6.18388 75.0245 4.42015 77.2589 3.27891C79.3618 2.24142 79.5721 2.16361 79.2041 2.63048ZM85.0398 3.35672C85.6181 3.74578 86.3541 4.5239 86.6958 5.06858C87.2478 6.00232 87.3004 6.31356 87.1953 8.80354C87.0638 11.9419 86.6958 12.9794 85.1712 14.6135C84.1723 15.6769 82.0431 16.8181 80.4133 17.2072C79.8087 17.3369 79.651 17.2331 79.3881 16.5588C79.2041 16.1178 78.5732 15.0544 77.9949 14.1725C76.8909 12.4866 76.8383 11.9679 77.548 9.52978C77.9423 8.20698 80.1241 5.0167 81.6488 3.56422C83.0682 2.1636 83.3048 2.1636 85.0398 3.35672ZM30.0478 9.50385C32.0719 10.671 31.257 14.2504 28.9964 14.2504C28.4969 14.2504 27.8397 14.1207 27.5506 13.965C27.1037 13.7316 26.762 13.7835 25.8682 14.2504C23.6864 15.3138 22.3721 14.4319 22.1355 11.8382C22.0304 10.4635 22.0567 10.4116 22.9241 9.8929C23.4236 9.58165 24.291 9.21853 24.8693 9.08884C26.3151 8.72572 29.0752 8.95916 30.0478 9.50385ZM102.284 9.58165C103.73 10.3338 103.887 10.5932 103.572 12.2013C103.099 14.5875 101.784 15.3397 99.9181 14.2244C99.182 13.7835 98.8929 13.7575 98.2357 13.965C96.9477 14.4319 95.9751 14.3022 95.2916 13.6019C94.7396 13.0832 94.6344 12.7201 94.6344 11.5529C94.6344 10.282 94.7133 10.0485 95.3179 9.6854C95.6859 9.42603 96.4219 9.14072 96.9477 9.03697C98.3671 8.75166 101.18 9.03697 102.284 9.58165ZM93.0309 14.0688C93.1624 14.406 93.6355 14.9766 94.0824 15.3657C94.5293 15.7288 94.8973 16.1178 94.8973 16.2216C94.8973 16.5328 92.1898 16.0919 91.9532 15.7547C91.6377 15.2619 91.6903 14.1466 92.0583 13.7835C92.5315 13.3166 92.7681 13.3944 93.0309 14.0688ZM32.8605 14.821C32.8605 15.7806 32.5188 16.066 31.1256 16.2216L29.8375 16.3772L30.9679 15.8066C31.5725 15.4953 32.2033 15.0025 32.3611 14.7432C32.7028 14.0947 32.8605 14.1207 32.8605 14.821ZM42.2712 18.115C42.7969 18.3744 43.8484 18.7894 44.5844 19.0228L45.925 19.4637L45.4782 21.0718L45.0313 22.68L43.3489 22.7578C42.4289 22.8096 41.5614 22.9393 41.43 23.069C41.2986 23.1987 40.7203 22.9653 40.0368 22.4984C38.775 21.6684 36.4092 20.7347 35.4366 20.7347C35.016 20.7347 34.5954 20.3456 33.9646 19.4119C33.4914 18.7116 33.176 18.0112 33.2548 17.8816C33.36 17.7259 35.1212 17.6222 37.3556 17.6222C40.6677 17.6222 41.4563 17.7 42.2712 18.115ZM91.7955 17.9594L92.5315 18.2706L91.7429 19.4637C91.0331 20.5012 90.7966 20.6828 89.824 20.8125C89.2194 20.8903 87.8262 21.409 86.7484 21.9537C84.9346 22.8615 84.6455 22.9393 83.0945 22.8096L81.4122 22.68L80.939 21.0459C80.4921 19.5156 80.4921 19.4119 80.9127 19.2822C81.1493 19.2044 82.2008 18.8153 83.1997 18.4262C84.8295 17.7519 85.3815 17.6741 88.0627 17.6741C89.8765 17.6481 91.3749 17.7778 91.7955 17.9594ZM30.2056 18.5819C31.1782 19.3081 32.5976 21.2015 32.7554 22.0056C32.8868 22.654 33.0708 22.7318 34.8846 23.0171C36.8561 23.3284 39.1431 24.3399 40.0105 25.3255C40.2471 25.5849 41.1934 27.8415 42.1397 30.3314C43.0861 32.8214 44.4267 36.3229 45.1627 38.1126C46.9239 42.496 46.9239 42.5219 46.3456 42.5219C45.741 42.5219 43.2701 41.666 43.1649 41.4066C43.1124 41.3029 42.9546 41.2769 42.8495 41.3547C42.7181 41.4326 42.4026 41.4066 42.1397 41.2769C41.8769 41.1472 40.7203 40.6026 39.5636 40.0838C36.8561 38.8388 34.1223 37.101 34.3589 36.7379C34.4377 36.5823 34.3851 36.5564 34.2274 36.6601C33.8594 36.8676 32.5714 35.7782 32.7817 35.4411C32.8605 35.2854 32.8079 35.2595 32.6502 35.3632C32.4925 35.4411 32.1245 35.2076 31.8353 34.8445C31.5199 34.4554 31.2833 34.2479 31.2833 34.3517C31.2833 34.4554 30.9153 34.1183 30.4947 33.5736C30.0478 33.0289 29.7587 32.4064 29.8375 32.2248C29.8901 32.0173 29.8638 31.9395 29.7061 32.0173C29.4432 32.173 28.1289 30.4092 28.1289 29.8905C28.1289 29.7089 27.9975 29.5533 27.8397 29.5533C27.682 29.5533 27.6032 29.3199 27.682 29.0346C27.7609 28.7493 27.7346 28.5677 27.6032 28.6455C27.3403 28.8011 26.2363 26.4927 26.4203 26.1815C26.5254 26.0258 26.4465 25.9221 26.3151 25.9221C26.1574 25.9221 26.026 25.7146 26.026 25.4552C26.026 25.1959 25.8419 24.729 25.5791 24.3918C25.3425 24.0546 25.1322 23.4581 25.0796 23.0949C25.0533 22.7318 24.8956 21.9537 24.7379 21.3831C24.4225 20.19 24.3699 18.3225 24.659 18.0372C24.7642 17.9075 25.8945 17.8816 27.1826 17.9594C28.9175 18.0372 29.6798 18.1928 30.2056 18.5819ZM101.18 18.7894C101.285 19.8528 100.654 23.8212 100.286 24.2102C100.128 24.3659 99.8655 24.9884 99.6815 25.6109C99.4975 26.2074 99.2346 26.6483 99.1032 26.5705C98.9455 26.4927 98.9192 26.5965 98.998 26.804C99.1557 27.2449 98.2357 29.0605 96.5534 31.6283C95.3967 33.418 92.9784 35.9079 90.928 37.4382C89.5085 38.5017 85.7495 40.3951 83.226 41.3288C81.4385 42.0032 78.5995 42.8072 78.5995 42.6516C78.5995 42.5219 80.5447 37.931 81.7539 35.2595C82.3585 33.9108 83.5677 31.1614 84.4089 29.1643C85.2763 27.1671 86.1701 25.2477 86.3804 24.9365C86.9587 24.0806 89.2456 23.0949 91.1646 22.9134C92.5841 22.7578 92.7681 22.6799 92.9258 22.0834C93.1361 21.2015 94.4504 19.3859 95.4493 18.5559C96.2379 17.9075 96.3956 17.8556 98.6826 17.9334L101.075 18.0112L101.18 18.7894ZM49.9995 38.6054C50.6829 39.0463 51.787 39.6429 52.4442 39.9282C53.1013 40.2135 54.2579 41.0435 55.0203 41.8216C59.1736 45.9975 65.7978 46.1791 70.0563 42.2366C70.7923 41.5622 72.0015 40.7582 72.7638 40.4729C74.8142 39.6688 75.9971 39.0204 77.364 38.0088L78.5732 37.101L77.916 38.8388C75.5765 44.986 73.0004 50.6921 71.9752 51.989C71.2655 52.8968 69.6883 53.649 67.5853 54.0899C65.4298 54.5308 63.9841 54.5309 65.9818 54.064C68.9522 53.3896 70.1614 52.5856 71.2655 50.4846C72.1067 48.9025 74.8931 42.5219 74.7616 42.5219C74.6828 42.5219 74.8142 42.2626 75.0245 41.9513C75.6291 41.1213 75.5502 40.8879 74.7353 41.0954C73.3947 41.4066 71.8438 42.2626 70.6872 43.326C68.1899 45.6344 66.0344 46.3088 61.8548 46.1013C59.673 45.9975 59.0159 45.8678 57.5701 45.1675C56.6238 44.7266 55.2568 43.8188 54.4945 43.1185C53.7585 42.4182 52.5493 41.6141 51.8133 41.3029C51.0772 40.9916 50.4727 40.7841 50.4727 40.836C50.4727 41.1472 53.7585 48.9284 54.1528 49.525C54.3105 49.7325 54.5471 50.1993 54.6785 50.5365C55.5723 52.5856 57.3861 53.649 60.9874 54.2974C61.3554 54.3752 60.8296 54.3752 59.857 54.2974C57.7804 54.1677 55.546 53.3896 54.3894 52.4559C53.2065 51.4703 50.6304 45.9716 47.9228 38.6313L47.0291 36.1673L47.8965 36.9714C48.3697 37.4123 49.316 38.1385 49.9995 38.6054ZM61.9074 41.8735C63.064 41.9513 64.8778 41.9254 65.9293 41.7957C66.9545 41.6919 67.8219 41.666 67.8219 41.7438C67.8219 41.8216 67.2699 42.1847 66.5864 42.496C64.1418 43.6891 60.0673 43.4557 57.9644 41.9772L57.1758 41.4326L58.4901 41.5882C59.2261 41.666 60.7508 41.7957 61.9074 41.8735ZM70.6872 56.8652C69.5568 57.3839 69.1363 57.2802 69.1363 56.528C69.1363 56.2168 69.5043 55.8277 70.1352 55.5165L71.1078 54.9977L71.4232 55.698C71.7124 56.3724 71.6861 56.4243 70.6872 56.8652ZM55.5986 55.8536C56.5449 56.2686 56.65 56.4243 56.282 56.9949C55.9403 57.5396 54.1528 56.7096 54.1528 56.0352C54.1528 55.3868 54.3894 55.3608 55.5986 55.8536ZM49.1846 58.0842C50.4464 58.7327 50.7355 58.9921 50.5778 59.3292C50.4989 59.5627 50.1572 60.678 49.8681 61.7673L49.3423 63.7904L48.5274 63.2458C46.8451 62.1564 43.5855 60.9373 42.3238 60.9373C41.3249 60.9373 41.3249 60.5223 42.35 59.1477C43.9798 56.9171 46.1616 56.5799 49.1846 58.0842ZM56.9129 58.3436C57.6489 58.4474 58.937 58.4992 59.8045 58.4474L61.3817 58.3696L59.9359 58.7327C57.4124 59.407 53.3642 58.9921 53.3642 58.0583C53.3642 57.8508 53.6796 57.8249 54.4945 57.9546C55.0991 58.0583 56.2032 58.2399 56.9129 58.3436ZM72.2907 58.1102C72.2907 58.6808 70.582 59.0699 68.2162 58.9921C64.7464 58.8883 63.8 58.3955 67.0333 58.3955C68.4002 58.3696 69.8986 58.2658 70.3192 58.1102C71.3969 57.773 72.2907 57.773 72.2907 58.1102ZM55.4671 59.848C56.65 59.9777 56.7815 60.0295 56.1506 60.1592C55.4934 60.263 55.3094 60.4964 54.8888 61.7155C54.626 62.4936 54.3631 63.2976 54.2842 63.4792C54.1791 63.7386 54.0214 63.7386 53.4168 63.4273C51.9184 62.6751 51.9184 62.5714 52.9699 59.6664C53.0488 59.4589 53.2853 59.407 53.5745 59.5108C53.8111 59.6145 54.6785 59.7442 55.4671 59.848ZM73.1318 60.9373C73.4999 62.0008 73.5261 62.3898 73.2896 62.6751C72.9741 63.0642 71.5021 63.8942 71.3969 63.7386C71.3706 63.6867 71.1078 62.9086 70.8186 61.9748C70.3455 60.4964 70.1877 60.263 69.5043 60.1333C68.8471 59.9777 68.8997 59.9517 69.9249 59.8999C70.582 59.8739 71.3444 59.7702 71.6335 59.6405C72.4484 59.3033 72.6061 59.433 73.1318 60.9373ZM52.523 65.5801C53.0488 65.8395 53.8899 66.1507 54.3631 66.2545C54.81 66.3323 55.2043 66.5138 55.2043 66.6176C55.2043 66.9288 53.8636 67.5513 53.3379 67.4735C53.0225 67.4216 52.6019 67.8626 51.9447 68.926C51.419 69.7819 50.9984 70.6379 50.9984 70.8454C50.9984 71.4419 49.5526 71.831 48.5011 71.4938C47.3445 71.1566 47.4497 70.7416 48.7377 70.4304C49.8681 70.171 50.0784 69.8079 50.867 66.8251C51.1298 65.8654 51.3927 65.0873 51.4453 65.0873C51.4978 65.0873 51.971 65.2948 52.523 65.5801ZM74.9193 67.2142C75.6817 70.0154 75.7868 70.171 76.9434 70.4563C78.2315 70.7416 78.3103 71.1566 77.1537 71.5197C75.9971 71.8569 74.6565 71.4938 74.6565 70.8194C74.6565 70.586 74.2359 69.7301 73.7102 68.9001C72.9478 67.681 72.6587 67.4216 72.0541 67.4216C71.6598 67.4216 71.1341 67.2141 70.8975 66.9548C70.4769 66.5138 70.5295 66.462 72.0278 66.021C72.8953 65.7617 73.6839 65.4504 73.7627 65.3207C74.1045 64.7761 74.3673 65.217 74.9193 67.2142ZM61.1188 66.5398C60.0673 67.3438 58.569 67.9663 57.8855 67.8885L57.2021 67.8107L57.9381 67.3179C58.5953 66.9029 60.5931 66.2285 61.3817 66.1767C61.5394 66.1507 61.4079 66.3323 61.1188 66.5398ZM66.1659 66.6435C66.6127 66.7473 67.8482 67.4216 68.926 68.122C69.9774 68.8223 71.1603 69.6004 71.5284 69.8338C71.9227 70.0672 72.2907 70.5601 72.3432 70.975C72.4221 71.3641 72.5535 71.8828 72.6587 72.0903C72.7901 72.4275 71.6072 72.4794 62.8537 72.4794C53.6008 72.4794 52.9173 72.4535 53.1276 72.0385C53.2591 71.805 53.3642 71.3122 53.3642 70.975C53.3642 69.8857 53.9162 69.6522 55.7826 69.9635C58.6478 70.4563 60.8296 69.7041 62.9589 67.5254C63.9578 66.5138 64.4046 66.2026 64.7989 66.3063C65.0881 66.3842 65.6927 66.5398 66.1659 66.6435Z" fill="#CCFF00"/>
</svg>
